<?xml version="1.0" standalone="no"?>
<!DOCTYPE svg PUBLIC "-//W3C//DTD SVG 20010904//EN"
 "http://www.w3.org/TR/2001/REC-SVG-20010904/DTD/svg10.dtd">
<svg version="1.0" xmlns="http://www.w3.org/2000/svg"
 width="512.000000pt" height="512.000000pt" viewBox="0 0 512.000000 512.000000"
 preserveAspectRatio="xMidYMid meet">
<metadata>
Created by potrace 1.11, written by Peter Selinger 2001-2013
</metadata>
<g transform="translate(0.000000,512.000000) scale(0.100000,-0.100000)"
fill="#000000" stroke="none">
<path d="M2725 4876 c-52 -23 -93 -84 -89 -133 1 -13 -1 -24 -5 -24 -3 -1
-222 -2 -486 -3 -510 -2 -516 -2 -531 -49 -8 -26 -8 -400 1 -426 15 -48 28
-49 535 -49 261 0 481 -1 488 -1 9 -1 12 -32 12 -121 l0 -120 -34 0 c-46 0
-63 -26 -62 -90 1 -28 -1 -51 -4 -51 -3 -1 -48 -3 -100 -4 -317 -9 -571 -117
-776 -330 -140 -146 -222 -295 -273 -501 -27 -105 -29 -146 -30 -484 l-1 -285
-40 -23 c-49 -28 -90 -96 -94 -154 -5 -86 37 -159 114 -199 40 -21 49 -22 569
-22 519 0 529 0 572 21 130 63 157 225 56 330 l-32 33 0 225 -1 224 56 1 c30
0 336 0 680 0 344 0 637 2 651 5 57 11 57 11 57 579 0 300 -4 527 -9 537 -23
43 -43 44 -501 44 -241 -1 -438 1 -439 4 0 3 -2 28 -3 56 -2 62 -18 84 -61 84
l-33 0 2 122 1 121 498 1 499 1 19 24 c21 26 21 20 21 260 0 183 -6 211 -46
228 -12 5 -231 9 -498 9 -263 -1 -479 1 -479 4 -1 3 -3 18 -5 33 -8 67 -78
137 -138 137 -17 -1 -44 -7 -61 -14z m91 -74 c17 -11 33 -47 30 -68 -2 -16
-11 -19 -57 -20 -74 0 -82 3 -74 35 13 51 64 78 101 53z m-58 -247 c8 -8 10
-205 2 -206 -7 -1 -960 -1 -982 0 -14 1 -17 14 -16 103 0 57 1 105 3 108 5 7
986 3 993 -5z m990 6 l53 -1 -3 -107 -3 -106 -470 0 c-258 1 -479 2 -490 2
-19 1 -20 7 -20 104 l0 102 30 5 c23 4 522 4 903 1z m-925 -370 c4 -1 7 -55 7
-121 l0 -120 -50 0 -50 0 0 119 c0 79 4 121 11 123 10 3 56 3 82 -1z m95 -330
c8 -1 12 -11 10 -28 l-3 -28 -135 -1 c-74 0 -140 4 -146 8 -6 4 -9 18 -7 31 4
22 7 22 136 20 73 -1 138 -2 145 -2z m887 -633 l-1 -423 -689 -2 c-507 -2
-696 -5 -712 -14 -12 -7 -26 -24 -31 -38 -4 -14 -8 -140 -8 -278 l1 -253 -423
0 -424 0 5 333 c5 348 8 371 60 513 88 240 306 449 558 535 136 46 163 47 934
48 l730 1 0 -422z m-1369 -1176 c24 -15 26 -50 5 -71 -21 -21 -30 -21 -518
-21 -398 1 -502 3 -515 14 -21 15 -24 56 -6 74 9 9 137 12 518 12 278 0 510
-4 516 -8z"/>
<path d="M1882 1683 c-18 -15 -146 -240 -267 -468 -18 -33 -42 -78 -55 -100
-75 -132 -111 -207 -125 -260 -72 -270 94 -548 371 -620 77 -20 211 -14 287
13 247 88 387 353 322 607 -9 35 -60 141 -122 255 -59 107 -117 213 -129 235
-179 333 -194 355 -239 355 -13 0 -32 -8 -43 -17z m102 -328 c31 -57 67 -123
80 -147 13 -24 39 -72 58 -108 19 -36 58 -108 86 -160 65 -122 79 -189 57
-285 -23 -103 -77 -179 -165 -232 -188 -112 -436 -18 -504 193 -35 107 -24
192 39 309 58 109 123 230 157 290 36 66 58 107 97 183 18 34 34 62 36 62 2 0
28 -47 59 -105z"/>
<path d="M1726 754 c-21 -21 -20 -63 4 -118 21 -49 45 -59 74 -30 19 19 19 16
1 61 -9 20 -14 42 -11 49 6 16 -22 54 -39 54 -7 0 -21 -7 -29 -16z"/>
</g>
</svg>
